<svg width="1330" height="1251" viewBox="0 0 1330 1251" fill="none" xmlns="http://www.w3.org/2000/svg">
    <mask id="path-1-inside-1_7_806" fill="white">
        <path d="M1250 660C1250 582.388 1234.71 505.537 1205.01 433.834C1175.31 362.13 1131.78 296.979 1076.9 242.1C1022.02 187.22 956.869 143.687 885.166 113.987C813.462 84.2864 736.611 68.9997 659 68.9997C581.389 68.9997 504.537 84.2864 432.834 113.987C361.13 143.687 295.979 187.22 241.1 242.1C186.22 296.979 142.687 362.13 112.987 433.834C83.2864 505.537 67.9997 582.389 67.9998 660L659 660H1250Z"/>
    </mask>
    <path d="M1250 660C1250 582.388 1234.71 505.537 1205.01 433.834C1175.31 362.13 1131.78 296.979 1076.9 242.1C1022.02 187.22 956.869 143.687 885.166 113.987C813.462 84.2864 736.611 68.9997 659 68.9997C581.389 68.9997 504.537 84.2864 432.834 113.987C361.13 143.687 295.979 187.22 241.1 242.1C186.22 296.979 142.687 362.13 112.987 433.834C83.2864 505.537 67.9997 582.389 67.9998 660L659 660H1250Z"
          fill="#FF5656" stroke="white" stroke-width="30" mask="url(#path-1-inside-1_7_806)"/>
    <mask id="path-2-inside-2_7_806" fill="white">
        <path d="M1250 660C1250 543.111 1215.34 428.847 1150.4 331.658C1085.46 234.468 993.157 158.718 885.166 113.987C777.175 69.2555 658.344 57.5518 543.701 80.3556C429.059 103.159 323.752 159.447 241.1 242.1L659 660H1250Z"/>
    </mask>
    <path d="M1250 660C1250 543.111 1215.34 428.847 1150.4 331.658C1085.46 234.468 993.157 158.718 885.166 113.987C777.175 69.2555 658.344 57.5518 543.701 80.3556C429.059 103.159 323.752 159.447 241.1 242.1L659 660H1250Z"
          fill="#FF8888" stroke="white" stroke-width="30" mask="url(#path-2-inside-2_7_806)"/>
    <mask id="path-3-inside-3_7_806" fill="white">
        <path d="M1250 660C1250 574.569 1231.48 490.155 1195.71 412.572C1159.95 334.989 1107.79 266.082 1042.82 210.6C977.862 155.117 901.644 114.378 819.421 91.1887C737.198 67.9995 650.925 62.9117 566.547 76.2759L659 660H1250Z"/>
    </mask>
    <path d="M1250 660C1250 574.569 1231.48 490.155 1195.71 412.572C1159.95 334.989 1107.79 266.082 1042.82 210.6C977.862 155.117 901.644 114.378 819.421 91.1887C737.198 67.9995 650.925 62.9117 566.547 76.2759L659 660H1250Z"
          fill="#D1D80F" stroke="white" stroke-width="30" mask="url(#path-3-inside-3_7_806)"/>
    <mask id="path-4-inside-4_7_806" fill="white">
        <path d="M1250 660C1250 519.281 1199.79 383.179 1108.4 276.176C1017.01 169.172 890.439 98.2892 751.453 76.2759L659 660H1250Z"/>
    </mask>
    <path d="M1250 660C1250 519.281 1199.79 383.179 1108.4 276.176C1017.01 169.172 890.439 98.2892 751.453 76.2759L659 660H1250Z"
          fill="#84BD32" stroke="white" stroke-width="30" mask="url(#path-4-inside-4_7_806)"/>
    <mask id="path-5-inside-5_7_806" fill="white">
        <path d="M1250 660C1250 582.388 1234.71 505.537 1205.01 433.834C1175.31 362.13 1131.78 296.979 1076.9 242.1L659 660H1250Z"/>
    </mask>
    <path d="M1250 660C1250 582.388 1234.71 505.537 1205.01 433.834C1175.31 362.13 1131.78 296.979 1076.9 242.1L659 660H1250Z"
          fill="#30AD43" stroke="white" stroke-width="30" mask="url(#path-5-inside-5_7_806)"/>
    <mask id="path-6-inside-6_7_806" fill="white">
        <path d="M1037 647C1037 546.748 997.175 450.602 926.286 379.714C855.398 308.825 759.252 269 659 269C558.748 269 462.602 308.825 391.714 379.714C320.825 450.602 281 546.748 281 647L659 647H1037Z"/>
    </mask>
    <path d="M1037 647C1037 546.748 997.175 450.602 926.286 379.714C855.398 308.825 759.252 269 659 269C558.748 269 462.602 308.825 391.714 379.714C320.825 450.602 281 546.748 281 647L659 647H1037Z"
          fill="url(#paint0_linear_7_806)" stroke="white" stroke-width="30" mask="url(#path-6-inside-6_7_806)"/>
    <path d="M301.992 664.959C298.327 664.945 295.174 664.043 292.532 662.253C289.904 660.463 287.88 657.871 286.459 654.476C285.053 651.081 284.357 646.997 284.371 642.224C284.371 637.466 285.074 633.411 286.481 630.058C287.901 626.706 289.925 624.156 292.553 622.409C295.195 620.648 298.341 619.767 301.992 619.767C305.643 619.767 308.782 620.648 311.41 622.409C314.052 624.17 316.083 626.727 317.503 630.08C318.924 633.418 319.627 637.466 319.613 642.224C319.613 647.011 318.903 651.102 317.482 654.497C316.076 657.892 314.059 660.484 311.431 662.274C308.803 664.064 305.657 664.959 301.992 664.959ZM301.992 657.31C304.492 657.31 306.488 656.053 307.979 653.538C309.471 651.024 310.209 647.253 310.195 642.224C310.195 638.915 309.854 636.159 309.172 633.957C308.505 631.756 307.553 630.101 306.317 628.993C305.096 627.885 303.654 627.331 301.992 627.331C299.506 627.331 297.518 628.574 296.026 631.06C294.535 633.545 293.782 637.267 293.768 642.224C293.768 645.577 294.101 648.375 294.769 650.619C295.451 652.849 296.41 654.526 297.645 655.648C298.881 656.756 300.33 657.31 301.992 657.31Z"
          fill="#AEAEAE"/>
    <path d="M947.535 620.364V664H938.309V629.121H938.053L928.061 635.385V627.203L938.863 620.364H947.535ZM975.015 664.959C971.351 664.945 968.197 664.043 965.555 662.253C962.927 660.463 960.903 657.871 959.483 654.476C958.077 651.081 957.381 646.997 957.395 642.224C957.395 637.466 958.098 633.411 959.504 630.058C960.925 626.706 962.949 624.156 965.577 622.409C968.219 620.648 971.365 619.767 975.015 619.767C978.666 619.767 981.805 620.648 984.433 622.409C987.075 624.17 989.106 626.727 990.527 630.08C991.947 633.418 992.65 637.466 992.636 642.224C992.636 647.011 991.926 651.102 990.506 654.497C989.099 657.892 987.082 660.484 984.454 662.274C981.827 664.064 978.68 664.959 975.015 664.959ZM975.015 657.31C977.515 657.31 979.511 656.053 981.003 653.538C982.494 651.024 983.233 647.253 983.219 642.224C983.219 638.915 982.878 636.159 982.196 633.957C981.528 631.756 980.577 630.101 979.341 628.993C978.119 627.885 976.677 627.331 975.015 627.331C972.53 627.331 970.541 628.574 969.05 631.06C967.558 633.545 966.805 637.267 966.791 642.224C966.791 645.577 967.125 648.375 967.792 650.619C968.474 652.849 969.433 654.526 970.669 655.648C971.905 656.756 973.354 657.31 975.015 657.31ZM1016.32 664.959C1012.66 664.945 1009.51 664.043 1006.86 662.253C1004.24 660.463 1002.21 657.871 1000.79 654.476C999.385 651.081 998.689 646.997 998.703 642.224C998.703 637.466 999.406 633.411 1000.81 630.058C1002.23 626.706 1004.26 624.156 1006.89 622.409C1009.53 620.648 1012.67 619.767 1016.32 619.767C1019.97 619.767 1023.11 620.648 1025.74 622.409C1028.38 624.17 1030.41 626.727 1031.84 630.08C1033.26 633.418 1033.96 637.466 1033.94 642.224C1033.94 647.011 1033.23 651.102 1031.81 654.497C1030.41 657.892 1028.39 660.484 1025.76 662.274C1023.14 664.064 1019.99 664.959 1016.32 664.959ZM1016.32 657.31C1018.82 657.31 1020.82 656.053 1022.31 653.538C1023.8 651.024 1024.54 647.253 1024.53 642.224C1024.53 638.915 1024.19 636.159 1023.5 633.957C1022.84 631.756 1021.89 630.101 1020.65 628.993C1019.43 627.885 1017.99 627.331 1016.32 627.331C1013.84 627.331 1011.85 628.574 1010.36 631.06C1008.87 633.545 1008.11 637.267 1008.1 642.224C1008.1 645.577 1008.43 648.375 1009.1 650.619C1009.78 652.849 1010.74 654.526 1011.98 655.648C1013.21 656.756 1014.66 657.31 1016.32 657.31Z"
          fill="#AEAEAE"/>
    <path d="M870.378 443L888.468 407.205V406.906H867.395V399.364H898.013V407.013L879.902 443H870.378ZM919.687 443.597C916.676 443.597 913.991 443.043 911.633 441.935C909.29 440.827 907.429 439.3 906.051 437.354C904.673 435.408 903.956 433.178 903.899 430.663H912.848C912.947 432.354 913.657 433.724 914.979 434.776C916.3 435.827 917.869 436.352 919.687 436.352C921.136 436.352 922.415 436.033 923.523 435.393C924.645 434.74 925.518 433.838 926.143 432.688C926.782 431.523 927.102 430.187 927.102 428.682C927.102 427.148 926.775 425.798 926.122 424.634C925.483 423.469 924.595 422.56 923.459 421.906C922.322 421.253 921.023 420.919 919.559 420.905C918.281 420.905 917.038 421.168 915.831 421.693C914.638 422.219 913.707 422.936 913.04 423.845L904.836 422.375L906.903 399.364H933.579V406.906H914.51L913.381 417.837H913.636C914.403 416.757 915.561 415.862 917.109 415.152C918.657 414.442 920.39 414.087 922.308 414.087C924.936 414.087 927.28 414.705 929.339 415.94C931.399 417.176 933.025 418.874 934.219 421.033C935.412 423.178 936.001 425.649 935.987 428.447C936.001 431.388 935.319 434.001 933.942 436.288C932.578 438.561 930.667 440.351 928.21 441.658C925.767 442.95 922.926 443.597 919.687 443.597Z"
          fill="#AEAEAE"/>
    <path d="M638.484 334.597C635.473 334.597 632.788 334.043 630.43 332.935C628.086 331.827 626.226 330.3 624.848 328.354C623.47 326.408 622.753 324.178 622.696 321.663H631.645C631.744 323.354 632.454 324.724 633.775 325.776C635.096 326.827 636.666 327.352 638.484 327.352C639.933 327.352 641.211 327.033 642.319 326.393C643.442 325.74 644.315 324.838 644.94 323.688C645.579 322.523 645.899 321.187 645.899 319.682C645.899 318.148 645.572 316.798 644.919 315.634C644.28 314.469 643.392 313.56 642.256 312.906C641.119 312.253 639.819 311.919 638.356 311.905C637.078 311.905 635.835 312.168 634.628 312.693C633.434 313.219 632.504 313.936 631.836 314.845L623.633 313.375L625.7 290.364H652.376V297.906H633.307L632.177 308.837H632.433C633.2 307.757 634.358 306.862 635.906 306.152C637.454 305.442 639.187 305.087 641.105 305.087C643.733 305.087 646.077 305.705 648.136 306.94C650.196 308.176 651.822 309.874 653.015 312.033C654.209 314.178 654.798 316.649 654.784 319.447C654.798 322.388 654.116 325.001 652.738 327.288C651.375 329.561 649.464 331.351 647.007 332.658C644.564 333.95 641.723 334.597 638.484 334.597ZM678.328 334.959C674.663 334.945 671.51 334.043 668.868 332.253C666.24 330.463 664.216 327.871 662.795 324.476C661.389 321.081 660.693 316.997 660.707 312.224C660.707 307.466 661.41 303.411 662.817 300.058C664.237 296.706 666.261 294.156 668.889 292.409C671.531 290.648 674.677 289.767 678.328 289.767C681.979 289.767 685.118 290.648 687.746 292.409C690.388 294.17 692.419 296.727 693.839 300.08C695.26 303.418 695.963 307.466 695.949 312.224C695.949 317.011 695.238 321.102 693.818 324.497C692.412 327.892 690.395 330.484 687.767 332.274C685.139 334.064 681.993 334.959 678.328 334.959ZM678.328 327.31C680.828 327.31 682.824 326.053 684.315 323.538C685.807 321.024 686.545 317.253 686.531 312.224C686.531 308.915 686.19 306.159 685.508 303.957C684.841 301.756 683.889 300.101 682.653 298.993C681.432 297.885 679.99 297.331 678.328 297.331C675.842 297.331 673.854 298.574 672.362 301.06C670.871 303.545 670.118 307.267 670.104 312.224C670.104 315.577 670.437 318.375 671.105 320.619C671.787 322.849 672.746 324.526 673.981 325.648C675.217 326.756 676.666 327.31 678.328 327.31Z"
          fill="#AEAEAE"/>
    <path d="M396.805 443V436.352L412.337 421.97C413.658 420.692 414.766 419.541 415.661 418.518C416.57 417.496 417.259 416.494 417.728 415.514C418.197 414.52 418.431 413.447 418.431 412.297C418.431 411.018 418.14 409.918 417.557 408.994C416.975 408.057 416.18 407.339 415.171 406.842C414.162 406.331 413.019 406.075 411.741 406.075C410.405 406.075 409.241 406.345 408.246 406.885C407.252 407.425 406.485 408.199 405.945 409.207C405.405 410.216 405.135 411.416 405.135 412.808H396.378C396.378 409.953 397.025 407.474 398.317 405.372C399.61 403.27 401.421 401.643 403.751 400.493C406.08 399.342 408.765 398.767 411.805 398.767C414.93 398.767 417.65 399.321 419.965 400.429C422.295 401.523 424.106 403.043 425.398 404.989C426.691 406.935 427.337 409.165 427.337 411.679C427.337 413.327 427.01 414.953 426.357 416.558C425.718 418.163 424.574 419.946 422.927 421.906C421.279 423.852 418.956 426.189 415.959 428.916L409.589 435.159V435.457H427.912V443H396.805ZM450.535 443.597C447.524 443.597 444.839 443.043 442.481 441.935C440.137 440.827 438.276 439.3 436.899 437.354C435.521 435.408 434.803 433.178 434.747 430.663H443.695C443.795 432.354 444.505 433.724 445.826 434.776C447.147 435.827 448.717 436.352 450.535 436.352C451.984 436.352 453.262 436.033 454.37 435.393C455.492 434.74 456.366 433.838 456.991 432.688C457.63 431.523 457.95 430.187 457.95 428.682C457.95 427.148 457.623 425.798 456.97 424.634C456.33 423.469 455.443 422.56 454.306 421.906C453.17 421.253 451.87 420.919 450.407 420.905C449.129 420.905 447.886 421.168 446.678 421.693C445.485 422.219 444.555 422.936 443.887 423.845L435.684 422.375L437.751 399.364H464.427V406.906H445.357L444.228 417.837H444.484C445.251 416.757 446.409 415.862 447.957 415.152C449.505 414.442 451.238 414.087 453.156 414.087C455.784 414.087 458.127 414.705 460.187 415.94C462.247 417.176 463.873 418.874 465.066 421.033C466.259 423.178 466.849 425.649 466.835 428.447C466.849 431.388 466.167 434.001 464.789 436.288C463.426 438.561 461.515 440.351 459.058 441.658C456.615 442.95 453.774 443.597 450.535 443.597Z"
          fill="#AEAEAE"/>
    <path d="M152 643L657 610L657 676L152 643Z" fill="#323232"/>
    <path d="M81.9398 438.829C87.5703 428.232 94.6709 423.308 100.499 426.405C106.222 429.445 106.115 438.085 100.485 448.682C94.8542 459.28 87.7536 464.204 82.0312 461.163C76.2029 458.066 76.3093 449.426 81.9398 438.829ZM87.2384 441.644C83.7193 448.268 83.0981 452.761 85.7474 454.169C88.3436 455.549 91.6671 452.49 95.1862 445.867C98.7052 439.244 99.3794 434.778 96.7831 433.399C94.1339 431.991 90.7574 435.021 87.2384 441.644ZM44.6402 440.617L61.1376 409.567L66.701 412.523L50.2037 443.573L44.6402 440.617ZM61.7044 456.07L85.1836 411.88L90.8 414.865L67.3209 459.054L61.7044 456.07ZM61.8729 435.165L65.589 428.171L75.5503 433.464L71.8341 440.458L61.8729 435.165ZM58.9698 413.647L62.686 406.653L66.7129 408.793C70.5808 410.848 74.7666 413.072 79.1494 417.099L74.6915 423.699C70.3617 419.7 66.8117 417.814 62.9967 415.787L58.9698 413.647ZM103.523 415.855L127.115 371.453L132.89 374.522L109.298 418.923L103.523 415.855ZM102.302 391.426L106.047 384.379L119.717 391.642L115.973 398.689L102.302 391.426ZM71.5201 394.502L91.3676 357.148L96.984 360.132L77.1365 397.487L71.5201 394.502ZM91.1842 404.679L110.835 367.695L116.345 370.623L96.6947 407.607L91.1842 404.679ZM79.73 390.304L83.4743 383.257L98.999 391.505L95.2547 398.552L79.73 390.304ZM88.7669 373.295L92.4831 366.301L108.008 374.55L104.292 381.544L88.7669 373.295ZM102.818 339.049L105.887 333.274L108.96 334.907C118.338 339.89 124.426 348.764 122.513 359.909L115.092 360.45C116.725 350.855 112.144 344.004 105.891 340.682L102.818 339.049ZM103.578 337.619L106.619 331.896L109.692 333.529C115.414 336.57 122.776 336.269 129.355 329.641L133.092 335.907C125.329 343.74 115.394 343.897 106.652 339.252L103.578 337.619ZM95.4658 347.644L109.542 321.152L115.158 324.136L101.082 350.629L95.4658 347.644ZM108.34 315.485L112.085 308.438L141.173 323.894L137.429 330.941L108.34 315.485ZM122.329 316.395L126.833 307.918L132.609 310.986L128.104 319.464L122.329 316.395ZM133.572 340.374C138.977 330.201 145.934 325.676 151.921 328.857C157.909 332.038 158.052 340.336 152.647 350.509C147.213 360.735 140.257 365.26 134.27 362.079C128.282 358.898 128.139 350.6 133.572 340.374ZM139.083 343.302C135.761 349.554 135.23 353.621 137.986 355.085C140.741 356.549 143.92 353.89 147.242 347.638C150.564 341.385 150.96 337.315 148.205 335.851C145.45 334.387 142.405 337.05 139.083 343.302Z"
          fill="black"/>
    <path d="M325.47 104.364L332.329 100.404L360.109 148.521L353.25 152.481L325.47 104.364ZM341.6 120.062L350.121 115.142L353.451 120.91L344.93 125.83L341.6 120.062ZM298.507 129.423L326.514 113.253L329.694 118.761L301.687 134.931L298.507 129.423ZM317.328 129.503C324.343 125.453 332.299 127.233 336.169 133.936C340.039 140.639 337.603 148.42 330.588 152.47C323.573 156.52 315.617 154.739 311.747 148.036C307.877 141.333 310.313 133.553 317.328 129.503ZM320.568 135.115C317.295 137.005 316.216 140.537 318.346 144.226C320.476 147.916 324.075 148.748 327.348 146.858C330.622 144.968 331.7 141.436 329.57 137.746C327.44 134.057 323.842 133.225 320.568 135.115ZM305.447 116.964L312.358 112.974L317.218 121.391L310.307 125.381L305.447 116.964ZM356.81 115.576L360.863 113.236C370.32 107.776 376.019 104.208 381.951 99.1213L385.754 104.269C379.749 109.468 373.82 113.238 364.103 118.848L360.05 121.188L356.81 115.576ZM345.598 96.2765L367.578 83.5865L376.128 98.3956L361.059 107.096L365.199 114.266L358.34 118.226L351.23 105.911L366.351 97.1814L363.951 93.0245L348.778 101.784L345.598 96.2765ZM373.404 76.7585L380.315 72.7685L397.175 101.971L390.264 105.961L373.404 76.7585ZM384.94 85.34L393.306 80.51L396.576 86.1738L388.21 91.0038L384.94 85.34ZM366.323 122.693L398.435 104.153L408.065 120.833L401.154 124.823L394.704 113.651L369.503 128.201L366.323 122.693ZM404 66.1609L409.663 62.8909L411.403 65.9047C416.713 75.1018 417.171 85.8537 409.64 94.2895L403.06 90.8135C409.532 83.5435 409.28 75.3061 405.74 69.1747L404 66.1609ZM405.403 65.3509L411.014 62.1109L412.754 65.1247C415.994 70.7365 422.396 74.3844 431.488 72.2527L431.335 79.5467C420.6 82.0727 412.093 76.9383 407.143 68.3647L405.403 65.3509ZM393.209 69.5505L419.189 54.5505L422.369 60.0584L396.389 75.0584L393.209 69.5505ZM421.175 49.1088L428.086 45.1188L444.556 73.6457L437.645 77.6357L421.175 49.1088ZM432.553 57.2967L440.867 52.4967L444.137 58.1605L435.823 62.9605L432.553 57.2967ZM429.373 83.5891C439.35 77.8291 447.647 77.6805 451.037 83.5521C454.427 89.4238 450.15 96.5352 440.173 102.295C430.145 108.085 421.847 108.234 418.457 102.362C415.067 96.4905 419.345 89.3791 429.373 83.5891ZM432.493 88.9931C426.362 92.5331 423.756 95.7001 425.316 98.4021C426.876 101.104 430.982 100.535 437.113 96.9951C443.245 93.4551 445.738 90.2141 444.178 87.5121C442.618 84.8101 438.625 85.4531 432.493 88.9931Z"
          fill="black"/>
    <path d="M911.873 50.4793L917.536 53.7493L915.076 58.0101C909.556 67.571 900.54 73.5888 889.564 71.4785L889.025 63.8925C898.639 65.8405 905.633 61.2873 909.413 54.7401L911.873 50.4793ZM913.276 51.2893L918.887 54.5293L916.037 59.4656C912.707 65.2333 912.689 72.7052 918.874 79.3935L912.198 82.6755C905.201 74.7556 905.416 64.9032 910.426 56.2256L913.276 51.2893ZM933.794 59.6712L940.704 63.6612L924.294 92.0841L917.384 88.0941L933.794 59.6712ZM932.362 73.671L940.676 78.471L937.376 84.1867L929.062 79.3867L932.362 73.671ZM907.972 84.1153C917.949 89.8753 922.226 96.9868 918.866 102.806C915.476 108.678 907.209 108.478 897.232 102.718C887.203 96.9276 882.896 89.8681 886.286 83.9965C889.646 78.1768 897.943 78.3253 907.972 84.1153ZM904.882 89.4674C898.751 85.9274 894.675 85.3064 893.145 87.9565C891.585 90.6585 894.191 93.8255 900.322 97.3655C906.454 100.906 910.447 101.548 912.007 98.8465C913.537 96.1964 911.014 93.0074 904.882 89.4674ZM968.414 80.6983L974.337 84.1183L973.497 85.5732C968.547 94.1468 957.378 97.0517 944.022 91.6264L944.595 84.7524C956.153 89.6933 964.664 87.1935 967.574 82.1532L968.414 80.6983ZM969.557 81.3583L975.48 84.7783L974.64 86.2332C971.73 91.2735 973.82 99.8933 983.826 107.402L978.212 111.366C966.835 102.512 963.797 91.3349 968.717 82.8132L969.557 81.3583ZM937.875 91.4725L981.367 116.582L978.217 122.038L934.725 96.9285L937.875 91.4725ZM954.563 112.608C964.955 118.608 969.413 125.408 966.203 130.968C962.963 136.579 954.875 136.067 944.483 130.067C934.039 124.037 929.551 117.289 932.791 111.678C936.001 106.118 944.119 106.578 954.563 112.608ZM951.563 117.804C945.12 114.084 941.186 113.337 939.806 115.728C938.396 118.17 941.04 121.151 947.483 124.871C953.926 128.591 957.83 129.39 959.24 126.948C960.62 124.557 958.006 121.524 951.563 117.804ZM1006.04 108.519L1011.7 111.789L1009.96 114.802C1004.65 124 995.571 129.771 984.5 127.467L984.22 120.031C993.752 122.001 1000.76 117.664 1004.3 111.532L1006.04 108.519ZM1007.44 109.329L1013.05 112.569L1011.31 115.582C1008.07 121.194 1008.12 128.562 1014.51 135.37L1008.11 138.884C1000.56 130.85 1000.75 120.916 1005.7 112.342L1007.44 109.329ZM997.709 100.868L1023.69 115.868L1020.51 121.376L994.529 106.376L997.709 100.868ZM1029.39 114.867L1036.31 118.857L1019.84 147.383L1012.92 143.393L1029.39 114.867ZM1027.99 128.814L1036.31 133.614L1033.04 139.278L1024.72 134.478L1027.99 128.814ZM1003.63 139.207C1013.61 144.967 1017.89 152.078 1014.5 157.95C1011.11 163.821 1002.81 163.673 992.833 157.913C982.805 152.123 978.527 145.011 981.917 139.14C985.307 133.268 993.605 133.417 1003.63 139.207ZM1000.51 144.611C994.382 141.071 990.336 140.398 988.776 143.1C987.216 145.802 989.762 149.073 995.893 152.613C1002.02 156.153 1006.08 156.692 1007.64 153.99C1009.2 151.288 1006.64 148.151 1000.51 144.611Z"
          fill="black"/>
    <path d="M1203.31 325.391L1215.28 346.124L1209.82 349.274L1197.85 328.541L1203.31 325.391ZM1193.11 339.524L1197.04 346.331L1180.72 355.751L1176.79 348.944L1193.11 339.524ZM1213.69 343.37L1217.62 350.177L1213.72 352.427C1209.04 355.127 1203.22 358.487 1194.47 361.808L1191.2 354.693C1199.61 351.5 1205.17 348.29 1209.79 345.62L1213.69 343.37ZM1224.77 351.522L1228.76 358.432L1180.64 386.212L1176.65 379.302L1224.77 351.522ZM1208.26 367.566L1213.15 376.036L1207.43 379.336L1202.54 370.866L1208.26 367.566ZM1168.64 342.982L1173.84 339.149C1178.73 347.619 1185.36 358.752 1192.02 367.519L1187.19 370.793C1179.92 362.036 1173.47 351.348 1168.64 342.982ZM1242.58 393.538L1249.69 405.853L1244.34 408.943L1237.23 396.628L1242.58 393.538ZM1232.81 399.178L1239.92 411.493L1234.57 414.583L1227.46 402.268L1232.81 399.178ZM1240.9 382.457C1245.1 389.732 1243.59 397.806 1237.05 401.586C1230.6 405.306 1222.86 402.572 1218.66 395.297C1214.46 388.023 1215.93 379.897 1222.38 376.177C1228.92 372.397 1236.7 375.183 1240.9 382.457ZM1235.29 385.697C1233.22 382.112 1229.72 380.736 1226.19 382.776C1222.7 384.786 1222.15 388.502 1224.22 392.087C1226.29 395.673 1229.78 397.049 1233.27 395.039C1236.8 392.999 1237.36 389.283 1235.29 385.697ZM1253.78 401.764L1257.77 408.675L1233.71 422.565L1229.72 415.654L1253.78 401.764ZM1213.32 391.935L1231.68 423.735L1218.59 431.295L1204.22 406.406L1198.35 409.796L1194.39 402.937L1205.25 396.667L1219.62 421.556L1222.42 419.936L1208.02 394.995L1213.32 391.935ZM1197.19 401.317L1216.3 434.416L1210.95 437.506L1191.84 404.407L1197.19 401.317ZM1262.94 430L1266.21 435.663L1263.2 437.403C1254 442.713 1243.25 443.171 1234.81 435.64L1238.29 429.06C1245.56 435.532 1253.8 435.28 1259.93 431.74L1262.94 430ZM1263.75 431.403L1266.99 437.014L1263.98 438.754C1258.37 441.994 1254.72 448.396 1256.85 457.488L1249.56 457.335C1247.03 446.6 1252.16 438.093 1260.74 433.143L1263.75 431.403ZM1259.55 419.209L1274.55 445.189L1269.04 448.369L1254.04 422.389L1259.55 419.209ZM1279.99 447.175L1283.98 454.086L1255.46 470.556L1251.47 463.645L1279.99 447.175ZM1271.81 458.553L1276.61 466.867L1270.94 470.137L1266.14 461.823L1271.81 458.553ZM1245.51 455.373C1251.27 465.35 1251.42 473.647 1245.55 477.037C1239.68 480.427 1232.57 476.15 1226.81 466.173C1221.02 456.145 1220.87 447.847 1226.74 444.457C1232.61 441.067 1239.72 445.345 1245.51 455.373ZM1240.11 458.493C1236.57 452.362 1233.4 449.756 1230.7 451.316C1228 452.876 1228.57 456.982 1232.11 463.113C1235.65 469.245 1238.89 471.738 1241.59 470.178C1244.29 468.618 1243.65 464.625 1240.11 458.493Z"
          fill="black"/>
    <path d="M589.167 50.44H639.447V56.92H589.167V50.44ZM610.227 38.56H618.207V52H610.227V38.56ZM594.447 11.32L602.367 11.32V19.84L626.067 19.84V11.32L633.987 11.32V40.24H594.447V11.32ZM602.367 26.08V33.88H626.067V26.08L602.367 26.08ZM680.062 7.78L688.042 7.78V40.3H680.062V7.78ZM684.862 21.1H695.422V27.7H684.862V21.1ZM651.922 42.46H659.782V46.66H680.122V42.46H688.042V62.74H651.922V42.46ZM659.782 52.66V56.5H680.122V52.66H659.782ZM644.302 12.58L677.002 12.58V18.88H644.302V12.58ZM660.682 20.38C668.722 20.38 674.302 24.34 674.302 30.22C674.302 36.1 668.722 40.06 660.682 40.06C652.582 40.06 647.002 36.1 647.002 30.22C647.002 24.34 652.582 20.38 660.682 20.38ZM660.682 26.2C657.082 26.2 654.682 27.64 654.682 30.22C654.682 32.86 657.082 34.24 660.682 34.24C664.222 34.24 666.682 32.86 666.682 30.22C666.682 27.64 664.222 26.2 660.682 26.2ZM656.662 7.36H664.642V16.12H656.662V7.36ZM711.858 13.96H718.398V17.44C718.398 28.06 713.418 37.6 702.678 41.14L698.718 34.84C707.958 31.78 711.858 24.52 711.858 17.44V13.96ZM713.478 13.96H719.958V17.44C719.958 23.92 723.678 30.28 732.618 32.98L728.838 39.22C718.278 36.04 713.478 27.34 713.478 17.44V13.96ZM700.818 11.5L730.818 11.5V17.86H700.818V11.5ZM735.258 7.78H743.238V40.72H735.258V7.78ZM741.018 20.56L750.618 20.56V27.1L741.018 27.1V20.56ZM725.118 41.74C736.638 41.74 743.898 45.76 743.898 52.54C743.898 59.32 736.638 63.34 725.118 63.34C713.538 63.34 706.278 59.32 706.278 52.54C706.278 45.76 713.538 41.74 725.118 41.74ZM725.118 47.98C718.038 47.98 714.198 49.42 714.198 52.54C714.198 55.66 718.038 57.22 725.118 57.22C732.198 57.22 735.978 55.66 735.978 52.54C735.978 49.42 732.198 47.98 725.118 47.98Z"
          fill="black"/>
    <defs>
        <linearGradient id="paint0_linear_7_806" x1="659" y1="269" x2="659" y2="1025" gradientUnits="userSpaceOnUse">
            <stop stop-color="#DDDDDD"/>
            <stop offset="0.489583" stop-color="white"/>
        </linearGradient>
    </defs>
</svg>